<svg width="22" height="26" viewBox="0 0 22 26" fill="none" xmlns="http://www.w3.org/2000/svg">
<g clip-path="url(#clip0_19_214)">
<path d="M17.6761 13.817C17.6466 10.5284 20.362 8.94959 20.4848 8.87262C18.9568 6.63708 16.5788 6.33083 15.7304 6.2948C13.7078 6.09008 11.7818 7.48544 10.7566 7.48544C9.73135 7.48544 8.146 6.32428 6.46895 6.35704C4.26126 6.38979 2.22881 7.63939 1.09221 9.61452C-1.19901 13.5893 0.50753 19.4803 2.73815 22.7067C3.83053 24.2839 5.1309 26.0608 6.84071 25.9953C8.48829 25.9298 9.11064 24.9308 11.0989 24.9308C13.0871 24.9308 13.6472 25.9953 15.3881 25.9642C17.1585 25.9298 18.282 24.3526 19.3662 22.7706C20.6175 20.9396 21.135 19.1675 21.1645 19.0742C21.1252 19.0578 17.7121 17.7492 17.6761 13.817" fill="#B3B3B3"/>
<path d="M14.4053 4.16052C15.3126 3.06159 15.9252 1.53355 15.7565 0.010498C14.4494 0.0629628 12.8675 0.8818 11.929 1.98073C11.0888 2.95196 10.3519 4.50778 10.5516 5.99982C12.0092 6.11283 13.4979 5.25784 14.4053 4.16052" fill="#B3B3B3"/>
</g>
<defs>
<clipPath id="clip0_19_214">
<rect width="21.1698" height="26.007" fill="white"/>
</clipPath>
</defs>
</svg>
