<svg width="21" height="21" viewBox="0 0 21 21" fill="none" xmlns="http://www.w3.org/2000/svg">
<g id="Group">
<path id="Vector" fill-rule="evenodd" clip-rule="evenodd" d="M0.788086 2.17185C0.788086 1.72845 0.964227 1.30321 1.27776 0.989675C1.59129 0.676143 2.01653 0.500002 2.45993 0.500002H19.1257C19.3454 0.499643 19.563 0.542629 19.7661 0.626498C19.9692 0.710366 20.1538 0.833471 20.3093 0.988764C20.4647 1.14406 20.588 1.32849 20.6721 1.5315C20.7562 1.73451 20.7994 1.95211 20.7993 2.17185V18.8376C20.7996 19.0574 20.7565 19.275 20.6725 19.4781C20.5885 19.6812 20.4653 19.8658 20.31 20.0212C20.1546 20.1767 19.9701 20.3 19.7671 20.3841C19.564 20.4681 19.3463 20.5114 19.1266 20.5112H2.45993C2.24031 20.5112 2.02283 20.468 1.81994 20.3839C1.61704 20.2998 1.43269 20.1766 1.27744 20.0212C1.12218 19.8659 0.999052 19.6815 0.915087 19.4786C0.831122 19.2756 0.787967 19.0581 0.788086 18.8385V2.17185ZM8.7089 8.12974H11.4186V9.49051C11.8097 8.70825 12.8103 8.00422 14.3139 8.00422C17.1964 8.00422 17.8795 9.56237 17.8795 12.4212V17.7169H14.9624V13.0725C14.9624 11.4443 14.5713 10.5256 13.578 10.5256C12.2 10.5256 11.6269 11.5162 11.6269 13.0725V17.7169H8.7089V8.12974ZM3.70609 17.5923H6.62409V8.00422H3.70609V17.5914V17.5923ZM7.0416 4.87701C7.0471 5.12685 7.00264 5.37527 6.91083 5.6077C6.81903 5.84013 6.68172 6.05188 6.50696 6.23052C6.33221 6.40917 6.12354 6.5511 5.89319 6.64801C5.66283 6.74491 5.41545 6.79483 5.16555 6.79483C4.91564 6.79483 4.66826 6.74491 4.4379 6.64801C4.20755 6.5511 3.99888 6.40917 3.82413 6.23052C3.64937 6.05188 3.51206 5.84013 3.42026 5.6077C3.32845 5.37527 3.28399 5.12685 3.28949 4.87701C3.30029 4.3866 3.50269 3.91991 3.85334 3.5769C4.20399 3.23388 4.67502 3.04181 5.16555 3.04181C5.65607 3.04181 6.1271 3.23388 6.47775 3.5769C6.8284 3.91991 7.0308 4.3866 7.0416 4.87701V4.87701Z" fill="white"/>
</g>
</svg>
