<svg width="21" height="21" viewBox="0 0 21 21" fill="none" xmlns="http://www.w3.org/2000/svg">
<g id="Group">
<path id="Vector" fill-rule="evenodd" clip-rule="evenodd" d="M6.6794 0.560034C7.74637 0.510915 8.08656 0.5 10.8044 0.5C13.5223 0.5 13.8625 0.511825 14.9286 0.560034C15.9946 0.608243 16.7223 0.778338 17.359 1.02484C18.0258 1.2768 18.6307 1.67066 19.1309 2.18003C19.6403 2.67941 20.0333 3.28338 20.2843 3.95103C20.5317 4.58775 20.7009 5.31543 20.75 6.37967C20.7992 7.44845 20.8101 7.78864 20.8101 10.5056C20.8101 13.2235 20.7982 13.5637 20.75 14.6307C20.7018 15.6949 20.5317 16.4226 20.2843 17.0593C20.0333 17.727 19.6397 18.332 19.1309 18.8321C18.6307 19.3415 18.0258 19.7344 17.359 19.9855C16.7223 20.2329 15.9946 20.4021 14.9304 20.4512C13.8625 20.5003 13.5223 20.5112 10.8044 20.5112C8.08656 20.5112 7.74637 20.4994 6.6794 20.4512C5.61517 20.403 4.88749 20.2329 4.25077 19.9855C3.58305 19.7344 2.97807 19.3408 2.47795 18.8321C1.96892 18.3324 1.575 17.7278 1.32367 17.0602C1.07717 16.4235 0.90798 15.6958 0.858862 14.6316C0.809743 13.5628 0.798828 13.2226 0.798828 10.5056C0.798828 7.78773 0.810653 7.44754 0.858862 6.38149C0.907071 5.31543 1.07717 4.58775 1.32367 3.95103C1.57538 3.28346 1.96959 2.67878 2.47886 2.17913C2.97827 1.6702 3.58264 1.27629 4.24986 1.02484C4.88658 0.778338 5.61426 0.609152 6.6785 0.560034H6.6794ZM14.8476 2.36105C13.7925 2.31284 13.476 2.30283 10.8044 2.30283C8.13295 2.30283 7.81641 2.31284 6.76127 2.36105C5.78527 2.40562 5.25588 2.56843 4.90295 2.70578C4.43633 2.88771 4.1025 3.10328 3.75231 3.45348C3.42034 3.77643 3.16487 4.16959 3.00461 4.60412C2.86726 4.95705 2.70444 5.48644 2.65987 6.46244C2.61166 7.51758 2.60166 7.83412 2.60166 10.5056C2.60166 13.1771 2.61166 13.4937 2.65987 14.5488C2.70444 15.5248 2.86726 16.0542 3.00461 16.4071C3.1647 16.841 3.4203 17.2349 3.75231 17.5578C4.07521 17.8898 4.46907 18.1454 4.90295 18.3055C5.25588 18.4428 5.78527 18.6056 6.76127 18.6502C7.81641 18.6984 8.13204 18.7084 10.8044 18.7084C13.4769 18.7084 13.7925 18.6984 14.8476 18.6502C15.8236 18.6056 16.353 18.4428 16.7059 18.3055C17.1726 18.1235 17.5064 17.908 17.8566 17.5578C18.1886 17.2349 18.4442 16.841 18.6043 16.4071C18.7416 16.0542 18.9045 15.5248 18.949 14.5488C18.9972 13.4937 19.0072 13.1771 19.0072 10.5056C19.0072 7.83412 18.9972 7.51758 18.949 6.46244C18.9045 5.48644 18.7416 4.95705 18.6043 4.60412C18.4224 4.1375 18.2068 3.80367 17.8566 3.45348C17.5336 3.12154 17.1405 2.86607 16.7059 2.70578C16.353 2.56843 15.8236 2.40562 14.8476 2.36105V2.36105ZM9.52646 13.5901C10.2402 13.8872 11.0349 13.9273 11.7749 13.7035C12.5149 13.4798 13.1543 13.006 13.5838 12.3632C14.0134 11.7205 14.2064 10.9485 14.13 10.1792C14.0536 9.40986 13.7125 8.69094 13.1649 8.1452C12.8158 7.79635 12.3937 7.52923 11.929 7.36308C11.4643 7.19693 10.9686 7.13587 10.4774 7.18431C9.98632 7.23276 9.51204 7.38949 9.08876 7.64322C8.66548 7.89696 8.30372 8.24139 8.02953 8.65172C7.75534 9.06204 7.57553 9.52806 7.50306 10.0162C7.43059 10.5044 7.46726 11.0025 7.61042 11.4748C7.75358 11.9471 7.99967 12.3818 8.33099 12.7475C8.6623 13.1133 9.07059 13.4011 9.52646 13.5901ZM7.16786 6.86903C7.64542 6.39147 8.21237 6.01265 8.83634 5.75419C9.46031 5.49573 10.1291 5.36271 10.8044 5.36271C11.4798 5.36271 12.1486 5.49573 12.7726 5.75419C13.3965 6.01264 13.9635 6.39147 14.441 6.86903C14.9186 7.3466 15.2974 7.91355 15.5559 8.53751C15.8143 9.16148 15.9474 9.83024 15.9474 10.5056C15.9474 11.181 15.8143 11.8498 15.5559 12.4737C15.2974 13.0977 14.9186 13.6646 14.441 14.1422C13.4766 15.1067 12.1684 15.6485 10.8044 15.6485C9.44046 15.6485 8.13234 15.1067 7.16786 14.1422C6.20338 13.1777 5.66154 11.8696 5.66154 10.5056C5.66154 9.14164 6.20338 7.83352 7.16786 6.86903V6.86903ZM17.088 6.12862C17.2063 6.01698 17.3011 5.88273 17.3666 5.73383C17.4321 5.58492 17.4671 5.42437 17.4695 5.2617C17.4719 5.09903 17.4416 4.93754 17.3804 4.78678C17.3192 4.63603 17.2285 4.49907 17.1134 4.38404C16.9984 4.269 16.8614 4.17821 16.7107 4.11705C16.5599 4.05589 16.3984 4.0256 16.2357 4.02797C16.0731 4.03034 15.9125 4.06532 15.7636 4.13085C15.6147 4.19638 15.4805 4.29113 15.3688 4.40947C15.1517 4.63963 15.0329 4.94534 15.0375 5.2617C15.0421 5.57807 15.1698 5.88019 15.3935 6.10391C15.6173 6.32764 15.9194 6.45537 16.2357 6.45998C16.5521 6.4646 16.8578 6.34573 17.088 6.12862V6.12862Z" fill="white"/>
</g>
</svg>
