<svg width="53" height="41" viewBox="0 0 53 41" fill="none" xmlns="http://www.w3.org/2000/svg">
<rect x="0.5" y="0.5" width="52" height="40" rx="20" stroke="#D8EEF2"/>
<path d="M17.833 21.0001C17.833 18.5067 19.3363 16.7651 21.6738 16.4717C21.9122 16.4351 22.1597 16.4167 22.4163 16.4167H31.583C31.8213 16.4167 32.0505 16.4259 32.2705 16.4626C34.6355 16.7376 36.1663 18.4884 36.1663 21.0001V25.5834C36.1663 28.3334 34.333 30.1667 31.583 30.1667H22.4163C19.6663 30.1667 17.833 28.3334 17.833 25.5834V24.6759" stroke="#2A9F8F" stroke-width="2" stroke-linecap="round" stroke-linejoin="round"/>
<path d="M32.2705 16.4624C32.0505 16.4258 31.8213 16.4166 31.583 16.4166H22.4163C22.1597 16.4166 21.9122 16.4349 21.6738 16.4716C21.8022 16.2149 21.9855 15.9766 22.2055 15.7566L25.1847 12.7683C26.4405 11.5216 28.4755 11.5216 29.7313 12.7683L31.3355 14.3908C31.9222 14.9683 32.2338 15.7016 32.2705 16.4624Z" stroke="#2A9F8F" stroke-width="2" stroke-linecap="round" stroke-linejoin="round"/>
<path d="M36.1663 21.4583H33.4163C32.408 21.4583 31.583 22.2833 31.583 23.2916C31.583 24.2999 32.408 25.1249 33.4163 25.1249H36.1663" stroke="#2A9F8F" stroke-width="2" stroke-linecap="round" stroke-linejoin="round"/>
</svg>
