<svg width="53" height="41" viewBox="0 0 53 41" fill="none" xmlns="http://www.w3.org/2000/svg">
<rect width="53" height="41" rx="20.5" fill="#0C1519"/>
<path d="M18.75 16.4533C18.75 15.0599 18.8783 14.0699 19.2083 13.3641C19.2083 13.3549 19.2084 13.3458 19.2267 13.3366C19.7492 12.6674 20.675 12.8324 21.7108 13.9416L21.72 13.9508C22.4717 14.7483 23.6175 14.6841 24.2684 13.8133L25.2033 12.5758C25.57 12.0808 26.0558 11.8333 26.5417 11.8333C27.0275 11.8333 27.5134 12.0808 27.88 12.5758L28.8058 13.8041C29.4658 14.6841 30.6209 14.7483 31.3725 13.9416C32.005 13.2633 32.5917 12.9424 33.0775 12.9424C33.3892 12.9424 33.655 13.0799 33.8566 13.3366C33.875 13.3458 33.875 13.3549 33.875 13.3641C34.205 14.0699 34.3333 15.0599 34.3333 16.4533V25.5466C34.3333 26.9399 34.205 27.9299 33.875 28.6358C33.875 28.6449 33.8658 28.6633 33.8566 28.6724C33.655 28.9291 33.3892 29.0574 33.0775 29.0574C32.5917 29.0574 32.005 28.7366 31.3725 28.0583C30.6209 27.2516 29.4658 27.3158 28.8058 28.1958L27.88 29.4241C27.5134 29.9191 27.0275 30.1666 26.5417 30.1666C26.0558 30.1666 25.57 29.9191 25.2033 29.4241L24.2684 28.1866C23.6175 27.3158 22.4717 27.2516 21.72 28.0491L21.7108 28.0583C20.675 29.1674 19.7584 29.3324 19.2267 28.6724C19.2175 28.6633 19.2083 28.6449 19.2083 28.6358C18.8783 27.9299 18.75 26.9399 18.75 25.5466V20.0558" stroke="white" stroke-width="1.5" stroke-linecap="round" stroke-linejoin="round"/>
<path d="M29.75 19.396H30.6667" stroke="white" stroke-width="1.5" stroke-linecap="round" stroke-linejoin="round"/>
<path d="M23.333 19.396H26.9997" stroke="white" stroke-width="1.5" stroke-linecap="round" stroke-linejoin="round"/>
<path d="M23.333 22.6042H28.833" stroke="white" stroke-width="1.5" stroke-linecap="round" stroke-linejoin="round"/>
</svg>
