<svg width="144" height="31" viewBox="0 0 144 31" fill="none" xmlns="http://www.w3.org/2000/svg">
<path fill-rule="evenodd" clip-rule="evenodd" d="M15.5056 0C24.0665 0 31 6.93348 31 15.4944C31 24.0554 24.0665 31 15.5056 31C6.94462 31 0 24.0554 0 15.4944C0 6.93348 6.94462 0 15.5056 0Z" fill="#264653"/>
<path fill-rule="evenodd" clip-rule="evenodd" d="M20.143 16.063H23.4648V22.7958C21.6032 24.8469 18.9502 25.8724 15.4946 25.8724C12.5853 25.8724 10.144 24.9138 8.18216 22.9965C7.73628 22.5729 7.34613 22.1158 7.01172 21.6365L9.89881 19.8864C10.1329 20.2097 10.3893 20.5107 10.6791 20.7893C11.9945 22.049 13.5773 22.6843 15.4501 22.6843C17.3228 22.6843 18.8833 22.2831 20.143 21.4805V16.063Z" fill="#2A9F8F"/>
<path fill-rule="evenodd" clip-rule="evenodd" d="M19.719 13.41L22.5169 11.6153L18.8941 5.94141C16.2299 5.21685 13.4432 5.77421 10.5226 7.63577C8.07028 9.19636 6.53199 11.3143 5.90775 13.9896C5.76284 14.5804 5.67366 15.1823 5.65137 15.7731L9.02893 15.684C9.04008 15.2938 9.09581 14.9037 9.19614 14.5135C9.61972 12.7411 10.623 11.3477 12.1947 10.3445C13.7776 9.34127 15.3159 8.83965 16.8096 8.83965L19.719 13.41Z" fill="white"/>
<path d="M53.8966 23.24C52.7899 23.24 51.7699 23.0667 50.8366 22.72C49.9166 22.36 49.1099 21.8533 48.4166 21.2C47.7366 20.5467 47.2032 19.78 46.8166 18.9C46.4432 18.02 46.2566 17.0533 46.2566 16C46.2566 14.9467 46.4432 13.98 46.8166 13.1C47.2032 12.22 47.7432 11.4533 48.4366 10.8C49.1299 10.1467 49.9432 9.64667 50.8766 9.3C51.8099 8.94 52.8366 8.76 53.9566 8.76C55.1966 8.76 56.3099 8.96667 57.2966 9.38C58.2966 9.79333 59.1366 10.3933 59.8166 11.18L57.7366 13.1C57.2299 12.5667 56.6766 12.1733 56.0766 11.92C55.4766 11.6533 54.8232 11.52 54.1166 11.52C53.4366 11.52 52.8166 11.6267 52.2566 11.84C51.6966 12.0533 51.2099 12.36 50.7966 12.76C50.3966 13.16 50.0832 13.6333 49.8566 14.18C49.6432 14.7267 49.5366 15.3333 49.5366 16C49.5366 16.6533 49.6432 17.2533 49.8566 17.8C50.0832 18.3467 50.3966 18.8267 50.7966 19.24C51.2099 19.64 51.6899 19.9467 52.2366 20.16C52.7966 20.3733 53.4099 20.48 54.0766 20.48C54.7166 20.48 55.3366 20.38 55.9366 20.18C56.5499 19.9667 57.1432 19.6133 57.7166 19.12L59.5566 21.46C58.7966 22.0333 57.9099 22.4733 56.8966 22.78C55.8966 23.0867 54.8966 23.24 53.8966 23.24ZM56.5966 21.04V15.78H59.5566V21.46L56.5966 21.04ZM65.5463 14.64H72.2863V17.16H65.5463V14.64ZM65.7863 20.4H73.4062V23H62.5663V9H73.1463V11.6H65.7863V20.4ZM78.8842 23V11.64H74.4042V9H86.6042V11.64H82.1242V23H78.8842ZM85.8044 23L92.0444 9H95.2444L101.504 23H98.1044L92.9844 10.64H94.2644L89.1244 23H85.8044ZM88.9244 20L89.7844 17.54H96.9844L97.8644 20H88.9244ZM107.557 23.24C106.437 23.24 105.364 23.0933 104.337 22.8C103.31 22.4933 102.484 22.1 101.857 21.62L102.957 19.18C103.557 19.6067 104.264 19.96 105.077 20.24C105.904 20.5067 106.737 20.64 107.577 20.64C108.217 20.64 108.73 20.58 109.117 20.46C109.517 20.3267 109.81 20.1467 109.997 19.92C110.184 19.6933 110.277 19.4333 110.277 19.14C110.277 18.7667 110.13 18.4733 109.837 18.26C109.544 18.0333 109.157 17.8533 108.677 17.72C108.197 17.5733 107.664 17.44 107.077 17.32C106.504 17.1867 105.924 17.0267 105.337 16.84C104.764 16.6533 104.237 16.4133 103.757 16.12C103.277 15.8267 102.884 15.44 102.577 14.96C102.284 14.48 102.137 13.8667 102.137 13.12C102.137 12.32 102.35 11.5933 102.777 10.94C103.217 10.2733 103.87 9.74667 104.737 9.36C105.617 8.96 106.717 8.76 108.037 8.76C108.917 8.76 109.784 8.86667 110.637 9.08C111.49 9.28 112.244 9.58667 112.897 10L111.897 12.46C111.244 12.0867 110.59 11.8133 109.937 11.64C109.284 11.4533 108.644 11.36 108.017 11.36C107.39 11.36 106.877 11.4333 106.477 11.58C106.077 11.7267 105.79 11.92 105.617 12.16C105.444 12.3867 105.357 12.6533 105.357 12.96C105.357 13.32 105.504 13.6133 105.797 13.84C106.09 14.0533 106.477 14.2267 106.957 14.36C107.437 14.4933 107.964 14.6267 108.537 14.76C109.124 14.8933 109.704 15.0467 110.277 15.22C110.864 15.3933 111.397 15.6267 111.877 15.92C112.357 16.2133 112.744 16.6 113.037 17.08C113.344 17.56 113.497 18.1667 113.497 18.9C113.497 19.6867 113.277 20.4067 112.837 21.06C112.397 21.7133 111.737 22.24 110.857 22.64C109.99 23.04 108.89 23.24 107.557 23.24ZM118.611 19.8L118.431 16.06L125.131 9H128.731L122.691 15.5L120.891 17.42L118.611 19.8ZM115.711 23V9H118.931V23H115.711ZM125.291 23L120.311 16.9L122.431 14.6L129.071 23H125.291ZM128.031 23L134.271 9H137.471L143.731 23H140.331L135.211 10.64H136.491L131.351 23H128.031ZM131.151 20L132.011 17.54H139.211L140.091 20H131.151Z" fill="#264653"/>
</svg>
