<svg width="53" height="40" viewBox="0 0 53 40" fill="none" xmlns="http://www.w3.org/2000/svg">
<rect width="53" height="40" rx="20" fill="#0C1519"/>
<path d="M34.4247 16.8927C36.2947 17.2043 36.7347 18.561 35.3872 19.8993L33.1138 22.1727C32.7288 22.5577 32.518 23.3002 32.6372 23.8318L33.288 26.646C33.8013 28.8735 32.6188 29.7352 30.648 28.571L27.9072 26.9485C27.4122 26.6552 26.5963 26.6552 26.0922 26.9485L23.3513 28.571C21.3897 29.7352 20.198 28.8643 20.7113 26.646L21.3622 23.8318C21.4813 23.3002 21.2705 22.5577 20.8855 22.1727L18.6122 19.8993C17.2738 18.561 17.7047 17.2043 19.5747 16.8927L22.4988 16.4068C22.9847 16.3243 23.5713 15.8935 23.7913 15.4443L25.4047 12.2177C26.2755 10.4668 27.7055 10.4668 28.5855 12.2177L30.1988 15.4443C30.2905 15.6368 30.4555 15.8293 30.648 15.9852" stroke="#FAA61A" stroke-width="2" stroke-linecap="round" stroke-linejoin="round"/>
</svg>
