<svg width="25" height="21" viewBox="0 0 25 21" fill="none" xmlns="http://www.w3.org/2000/svg">
<g id="Group">
<path id="Vector" d="M21.8862 3.65522C22.942 3.02406 23.7319 2.03022 24.1086 0.859281C23.1165 1.44794 22.0311 1.86259 20.8993 2.0853C20.1359 1.27779 19.1281 0.743768 18.0313 0.565557C16.9345 0.387346 15.8095 0.574839 14.8297 1.09913C13.8499 1.62343 13.0698 2.45542 12.6096 3.46685C12.1494 4.47828 12.0346 5.61301 12.283 6.69612C10.2736 6.59524 8.30794 6.07295 6.51352 5.16316C4.7191 4.25337 3.13605 2.97641 1.86712 1.41517C1.2218 2.52825 1.02433 3.84522 1.31482 5.09861C1.60531 6.35201 2.36198 7.44785 3.43115 8.16357C2.62877 8.13778 1.84419 7.92053 1.14282 7.52995V7.59355C1.14304 8.76065 1.54693 9.89175 2.286 10.795C3.02506 11.6983 4.0538 12.3181 5.19774 12.5494C4.45349 12.7519 3.67283 12.7817 2.9153 12.6366C3.23886 13.6404 3.86774 14.5181 4.71418 15.1473C5.56061 15.7765 6.58236 16.1257 7.63683 16.1462C5.84648 17.5514 3.63545 18.3135 1.35952 18.3097C0.955556 18.3097 0.552772 18.2862 0.152344 18.2402C2.46354 19.7253 5.15344 20.5136 7.90064 20.5109C9.79278 20.5239 11.6687 20.1608 13.4193 19.4426C15.1699 18.7245 16.7604 17.6657 18.0983 16.3276C19.4362 14.9896 20.4949 13.399 21.2129 11.6484C21.9309 9.89767 22.2939 8.02178 22.2807 6.12963C22.2807 5.91057 22.276 5.69269 22.2654 5.47599C23.2553 4.76066 24.1096 3.87446 24.7881 2.85907C23.866 3.2678 22.8878 3.53616 21.8862 3.65522V3.65522Z" fill="white"/>
</g>
</svg>
