<svg width="122" height="26" viewBox="0 0 122 26" fill="none" xmlns="http://www.w3.org/2000/svg">
<path fill-rule="evenodd" clip-rule="evenodd" d="M0.534604 0.398727C0.242253 0.712937 0.0742188 1.19655 0.0742188 1.82497V24.1776C0.0742188 24.806 0.242253 25.2896 0.545533 25.5929L0.624768 25.6598L13.1494 13.1351V12.8537L0.613839 0.331787L0.534604 0.398727V0.398727Z" fill="url(#paint0_linear_19_219)"/>
<path fill-rule="evenodd" clip-rule="evenodd" d="M17.3163 17.3266L13.1387 13.1476V12.8553L17.3177 8.67627L17.4078 8.73228L22.3505 11.541C23.7658 12.3389 23.7658 13.6531 22.3505 14.4618L17.4078 17.2706C17.4065 17.2706 17.3163 17.3266 17.3163 17.3266V17.3266Z" fill="url(#paint1_linear_19_219)"/>
<path fill-rule="evenodd" clip-rule="evenodd" d="M17.4059 17.2704L13.1381 13.0012L0.53418 25.6051C0.994565 26.0997 1.76916 26.1557 2.63529 25.6721L17.4059 17.2704Z" fill="url(#paint2_linear_19_219)"/>
<path fill-rule="evenodd" clip-rule="evenodd" d="M17.4059 8.73355L2.63529 0.34279C1.77053 -0.151749 0.994565 -0.0848086 0.53418 0.40973L13.1367 13.0013L17.4059 8.73355Z" fill="url(#paint3_linear_19_219)"/>
<path opacity="0.2" fill-rule="evenodd" clip-rule="evenodd" d="M17.3165 17.1804L2.647 25.5152C1.82733 25.9865 1.09645 25.9537 0.625134 25.5261L0.545898 25.6053L0.625134 25.6723C1.09645 26.0985 1.82733 26.1327 2.647 25.6613L17.4176 17.2706L17.3165 17.1804V17.1804Z" fill="black"/>
<path opacity="0.12" fill-rule="evenodd" clip-rule="evenodd" d="M22.3494 14.3154L17.3057 17.1802L17.3958 17.2704L22.3385 14.4616C23.0461 14.0572 23.3945 13.5299 23.3945 13.0012C23.3494 13.4848 22.9901 13.9452 22.3494 14.3154V14.3154Z" fill="black"/>
<path opacity="0.25" fill-rule="evenodd" clip-rule="evenodd" d="M2.63571 0.488961L22.3489 11.6885C22.9897 12.0478 23.349 12.5191 23.405 13.0027C23.405 12.4754 23.0566 11.9467 22.3489 11.5423L2.63571 0.342785C1.2204 -0.465963 0.0742188 0.207538 0.0742188 1.82503V1.97121C0.0742188 0.353714 1.2204 -0.308858 2.63571 0.488961Z" fill="white"/>
<path fill-rule="evenodd" clip-rule="evenodd" d="M38.1424 12.2923C38.1424 8.7117 41.152 5.79639 44.7326 5.79639C46.7121 5.79639 48.1206 6.57371 49.1834 7.58602L47.9321 8.83739C47.1725 8.12427 46.1424 7.57099 44.7312 7.57099C42.1164 7.57099 40.0727 9.67619 40.0727 12.291C40.0727 14.9057 42.1164 17.0137 44.7299 17.0137C46.4252 17.0137 47.3897 16.3333 48.0086 15.7131C48.5154 15.2063 48.8474 14.4781 48.9758 13.4795H44.7326V11.709H50.7053C50.7681 12.0259 50.8009 12.4057 50.8009 12.8169C50.8009 14.1462 50.4362 15.7951 49.2627 16.9686C48.1206 18.1571 46.6643 18.791 44.7312 18.791C41.1492 18.791 38.1396 15.8784 38.1396 12.2951L38.1424 12.2923ZM55.6288 10.4235C53.316 10.4235 51.428 12.183 51.428 14.6052C51.428 17.015 53.3146 18.7869 55.6288 18.7869C57.943 18.7869 59.8269 17.0123 59.8269 14.6038C59.8269 12.1817 57.9417 10.4221 55.6288 10.4235V10.4235ZM55.6288 17.1421C54.3624 17.1421 53.2682 16.097 53.2682 14.6065C53.2682 13.1011 54.3611 12.071 55.6288 12.071C56.8952 12.071 57.9881 13.0997 57.9881 14.6065C57.9881 16.0956 56.8966 17.1421 55.6288 17.1421ZM64.7887 10.4235C62.4759 10.4235 60.5906 12.183 60.5906 14.6052C60.5906 17.015 62.4759 18.7869 64.7887 18.7869C67.1016 18.7869 68.9868 17.0123 68.9868 14.6038C68.9868 12.1817 67.1029 10.4221 64.7887 10.4235V10.4235ZM64.7887 17.1421C63.5223 17.1421 62.428 16.097 62.428 14.6065C62.428 13.1011 63.5209 12.071 64.7887 12.071C66.0551 12.071 67.1494 13.0997 67.1494 14.6065C67.1494 16.0956 66.0551 17.1421 64.7887 17.1421ZM76.0306 10.6776V11.3579H75.9677C75.5565 10.8647 74.7642 10.4221 73.7669 10.4221C71.6754 10.4221 69.756 12.2609 69.756 14.6229C69.756 16.9659 71.674 18.7896 73.7669 18.7896C74.7642 18.7896 75.5565 18.347 75.9677 17.8402H76.0306V18.4413C76.0306 20.041 75.1754 20.8976 73.797 20.8976C72.6713 20.8976 71.9746 20.0888 71.689 19.4099L70.0879 20.0752C70.5469 21.1831 71.7683 22.5465 73.7956 22.5465C75.9486 22.5465 77.771 21.2774 77.771 18.1885V10.6762L76.0306 10.6776ZM73.924 17.1421C72.6576 17.1421 71.5934 16.0792 71.5934 14.6229C71.5934 13.1503 72.6563 12.0724 73.924 12.0724C75.1754 12.0724 76.1576 13.1489 76.1576 14.6229C76.159 16.0792 75.1768 17.1421 73.924 17.1421ZM79.0402 6.24038H80.879V18.5355H79.0402V6.24038ZM85.9186 17.1421C84.9842 17.1421 84.3175 16.7131 83.8927 15.8757L89.4856 13.5601L89.293 13.0847C88.946 12.1516 87.8831 10.4235 85.7123 10.4235C83.558 10.4235 81.767 12.1188 81.767 14.6065C81.767 16.9495 83.5416 18.7883 85.9186 18.7883C87.8367 18.7883 88.946 17.6175 89.405 16.9344L87.9787 15.985C87.502 16.6831 86.8517 17.1435 85.9186 17.1421V17.1421ZM85.7752 12.0396C86.5033 12.0396 87.1208 12.4044 87.3271 12.9262L83.5866 14.4795C83.5402 12.8634 84.8394 12.0396 85.7752 12.0396V12.0396Z" fill="#171717"/>
<path fill-rule="evenodd" clip-rule="evenodd" d="M97.5544 6.24048H93.1582V18.5356H94.9929V13.8785H97.5558C99.5899 13.8785 101.59 12.4058 101.59 10.0588C101.59 7.7159 99.5913 6.24184 97.5585 6.24184L97.5544 6.24048ZM97.6022 12.1667H94.9929V7.95087H97.6022C98.9738 7.95087 99.7552 9.08886 99.7552 10.0588C99.7552 11.0124 98.9738 12.1667 97.6022 12.1667V12.1667ZM104.436 18.5356V6.24048H102.601V18.5356H104.436ZM112.677 18.5138V13.8006C112.677 11.6176 111.046 10.4003 108.941 10.4003C107.615 10.4003 106.239 10.9864 105.669 12.2829L107.298 12.9618C107.646 12.2829 108.294 12.0602 108.975 12.0602C109.923 12.0602 110.888 12.6299 110.903 13.6435V13.7706C110.571 13.5807 109.86 13.2952 108.989 13.2952C107.233 13.2952 105.447 14.2597 105.447 16.0629C105.447 17.7091 106.886 18.7679 108.5 18.7679C109.735 18.7679 110.414 18.2146 110.84 17.5671H110.903V18.5165H112.676L112.677 18.5138ZM108.723 17.1395C108.121 17.1395 107.283 16.8389 107.283 16.0971C107.283 15.1476 108.328 14.7815 109.229 14.7815C110.037 14.7815 110.415 14.955 110.907 15.1927C110.766 16.2966 109.833 17.1258 108.723 17.1395V17.1395ZM119.13 10.6695L117.026 15.9987H116.963L114.78 10.6695H112.803L116.076 18.1203L114.209 22.2638H116.123L121.168 10.6695H119.13Z" fill="#171717"/>
<defs>
<linearGradient id="paint0_linear_19_219" x1="12.0248" y1="1.5847" x2="-8.03757" y2="6.93033" gradientUnits="userSpaceOnUse">
<stop stop-color="#00A0FF"/>
<stop offset="0.007" stop-color="#00A1FF"/>
<stop offset="0.26" stop-color="#00BEFF"/>
<stop offset="0.512" stop-color="#00D2FF"/>
<stop offset="0.76" stop-color="#00DFFF"/>
<stop offset="1" stop-color="#00E3FF"/>
</linearGradient>
<linearGradient id="paint1_linear_19_219" x1="24.1922" y1="13.0021" x2="-0.269592" y2="13.0021" gradientUnits="userSpaceOnUse">
<stop stop-color="#FFE000"/>
<stop offset="0.409" stop-color="#FFBD00"/>
<stop offset="0.775" stop-color="#FFA500"/>
<stop offset="1" stop-color="#FF9C00"/>
</linearGradient>
<linearGradient id="paint2_linear_19_219" x1="15.0852" y1="15.3237" x2="-1.02096" y2="42.4313" gradientUnits="userSpaceOnUse">
<stop stop-color="#FF3A44"/>
<stop offset="1" stop-color="#C31162"/>
</linearGradient>
<linearGradient id="paint3_linear_19_219" x1="-2.63853" y1="-7.03676" x2="4.5469" y2="5.06996" gradientUnits="userSpaceOnUse">
<stop stop-color="#32A071"/>
<stop offset="0.069" stop-color="#2DA771"/>
<stop offset="0.476" stop-color="#15CF74"/>
<stop offset="0.801" stop-color="#06E775"/>
<stop offset="1" stop-color="#00F076"/>
</linearGradient>
</defs>
</svg>
