<svg width="144" height="31" viewBox="0 0 144 31" fill="none" xmlns="http://www.w3.org/2000/svg">
<path fill-rule="evenodd" clip-rule="evenodd" d="M15.5056 0C24.0665 0 31 6.93348 31 15.4944C31 24.0554 24.0665 31 15.5056 31C6.94462 31 0 24.0554 0 15.4944C0 6.93348 6.94462 0 15.5056 0Z" fill="white"/>
<path fill-rule="evenodd" clip-rule="evenodd" d="M20.143 16.0629H23.4648V22.7958C21.6032 24.8468 18.9502 25.8723 15.4946 25.8723C12.5853 25.8723 10.144 24.9137 8.18216 22.9964C7.73628 22.5728 7.34613 22.1158 7.01172 21.6365L9.89881 19.8864C10.1329 20.2096 10.3893 20.5106 10.6791 20.7893C11.9945 22.0489 13.5773 22.6843 15.4501 22.6843C17.3228 22.6843 18.8833 22.283 20.143 21.4804V16.0629Z" fill="#2A9F8F"/>
<path fill-rule="evenodd" clip-rule="evenodd" d="M19.719 13.41L22.5169 11.6153L18.8941 5.94141C16.2299 5.21685 13.4432 5.77421 10.5226 7.63577C8.07028 9.19636 6.53199 11.3143 5.90775 13.9896C5.76284 14.5804 5.67366 15.1823 5.65137 15.7731L9.02893 15.684C9.04008 15.2938 9.09581 14.9037 9.19614 14.5135C9.61972 12.7411 10.623 11.3477 12.1947 10.3445C13.7776 9.34127 15.3159 8.83965 16.8096 8.83965L19.719 13.41Z" fill="#264653"/>
<path d="M56.5868 19.88C55.7668 20.32 54.9468 20.48 54.0668 20.48C51.3868 20.48 49.5268 18.62 49.5268 16C49.5268 13.34 51.3868 11.52 54.1068 11.52C55.5268 11.52 56.7068 12.02 57.7268 13.1L59.8068 11.18C58.4468 9.6 56.4068 8.76 53.9468 8.76C49.4868 8.76 46.2468 11.78 46.2468 16C46.2468 20.22 49.4868 23.24 53.8868 23.24C55.8868 23.24 58.0068 22.62 59.5468 21.46V15.78H56.5868V19.88ZM65.7765 20.4V17.16H72.2765V14.64H65.7765V11.6H73.1365V9H62.5565V23H73.3965V20.4H65.7765ZM78.8745 23H82.1145V11.64H86.5945V9H74.3945V11.64H78.8745V23ZM98.0946 23H101.495L95.2346 9H92.0346L85.7946 23H89.1146L90.3546 20H96.8546L98.0946 23ZM91.3946 17.54L93.6146 12.18L95.8346 17.54H91.3946ZM107.547 23.24C111.547 23.24 113.487 21.24 113.487 18.9C113.487 13.76 105.347 15.54 105.347 12.96C105.347 12.08 106.087 11.36 108.007 11.36C109.247 11.36 110.587 11.72 111.887 12.46L112.887 10C111.587 9.18 109.787 8.76 108.027 8.76C104.047 8.76 102.127 10.74 102.127 13.12C102.127 18.32 110.267 16.52 110.267 19.14C110.267 20 109.487 20.64 107.567 20.64C105.887 20.64 104.127 20.04 102.947 19.18L101.847 21.62C103.087 22.58 105.327 23.24 107.547 23.24ZM125.281 23H129.061L122.921 15.24L128.721 9H125.121L118.921 15.54V9H115.701V23H118.921V19.46L120.801 17.5L125.281 23ZM140.341 23H143.741L137.481 9H134.281L128.041 23H131.361L132.601 20H139.101L140.341 23ZM133.641 17.54L135.861 12.18L138.081 17.54H133.641Z" fill="white"/>
</svg>
