<svg width="122" height="26" viewBox="0 0 122 26" fill="none" xmlns="http://www.w3.org/2000/svg">
<g id="Group 3">
<g id="g1231">
<path id="path1192" fill-rule="evenodd" clip-rule="evenodd" d="M0.460385 0.398773C0.168034 0.712983 0 1.19659 0 1.82501V24.1776C0 24.806 0.168034 25.2896 0.471314 25.5929L0.55055 25.6599L13.0752 13.1352V12.8538L0.539621 0.331833L0.460385 0.398773V0.398773Z" fill="url(#paint0_linear_19_841)"/>
<path id="path1203" fill-rule="evenodd" clip-rule="evenodd" d="M17.2421 17.3265L13.0645 13.1475V12.8552L17.2434 8.67616L17.3336 8.73217L22.2763 11.5409C23.6916 12.3388 23.6916 13.653 22.2763 14.4617L17.3336 17.2705C17.3322 17.2705 17.2421 17.3265 17.2421 17.3265V17.3265Z" fill="url(#paint1_linear_19_841)"/>
<path id="path1210" fill-rule="evenodd" clip-rule="evenodd" d="M17.3316 17.2705L13.0639 13.0013L0.459961 25.6052C0.920346 26.0998 1.69494 26.1558 2.56107 25.6722L17.3316 17.2705Z" fill="url(#paint2_linear_19_841)"/>
<path id="path1223" fill-rule="evenodd" clip-rule="evenodd" d="M17.3316 8.73355L2.56107 0.34279C1.69631 -0.151749 0.920346 -0.0848086 0.459961 0.40973L13.0625 13.0013L17.3316 8.73355Z" fill="url(#paint3_linear_19_841)"/>
<path id="path1225" opacity="0.2" fill-rule="evenodd" clip-rule="evenodd" d="M17.2423 17.1803L2.57279 25.5151C1.75311 25.9864 1.02223 25.9536 0.550915 25.526L0.47168 25.6052L0.550915 25.6722C1.02223 26.0984 1.75311 26.1326 2.57279 25.6613L17.3434 17.2705L17.2423 17.1803V17.1803Z" fill="black"/>
<path id="path1227" opacity="0.12" fill-rule="evenodd" clip-rule="evenodd" d="M22.2752 14.3155L17.2314 17.1803L17.3216 17.2705L22.2643 14.4617C22.9719 14.0573 23.3203 13.53 23.3203 13.0013C23.2752 13.4849 22.9159 13.9453 22.2752 14.3155V14.3155Z" fill="black"/>
<path id="path1229" opacity="0.25" fill-rule="evenodd" clip-rule="evenodd" d="M2.56149 0.488961L22.2747 11.6885C22.9154 12.0478 23.2747 12.5191 23.3307 13.0027C23.3307 12.4754 22.9824 11.9467 22.2747 11.5423L2.56149 0.342785C1.14618 -0.465963 0 0.207538 0 1.82503V1.97121C0 0.353714 1.14618 -0.308858 2.56149 0.488961Z" fill="white"/>
</g>
<g id="g1237">
<path id="path1233" fill-rule="evenodd" clip-rule="evenodd" d="M38.0682 12.2923C38.0682 8.71167 41.0777 5.79636 44.6584 5.79636C46.6379 5.79636 48.0464 6.57368 49.1092 7.58598L47.8578 8.83736C47.0983 8.12424 46.0682 7.57096 44.657 7.57096C42.0422 7.57096 39.9985 9.67616 39.9985 12.2909C39.9985 14.9057 42.0422 17.0136 44.6556 17.0136C46.351 17.0136 47.3155 16.3333 47.9343 15.7131C48.4412 15.2062 48.7731 14.4781 48.9016 13.4795H44.6584V11.709H50.6311C50.6939 12.0259 50.7267 12.4057 50.7267 12.8169C50.7267 14.1461 50.362 15.7951 49.1884 16.9686C48.0464 18.1571 46.5901 18.791 44.657 18.791C41.075 18.791 38.0654 15.8784 38.0654 12.295L38.0682 12.2923ZM55.5546 10.4234C53.2418 10.4234 51.3538 12.183 51.3538 14.6052C51.3538 17.015 53.2404 18.7869 55.5546 18.7869C57.8688 18.7869 59.7527 17.0123 59.7527 14.6038C59.7527 12.1816 57.8675 10.4221 55.5546 10.4234V10.4234ZM55.5546 17.1421C54.2882 17.1421 53.1939 16.097 53.1939 14.6065C53.1939 13.101 54.2868 12.071 55.5546 12.071C56.821 12.071 57.9139 13.0997 57.9139 14.6065C57.9139 16.0956 56.8224 17.1421 55.5546 17.1421ZM64.7145 10.4234C62.4016 10.4234 60.5164 12.183 60.5164 14.6052C60.5164 17.015 62.4016 18.7869 64.7145 18.7869C67.0274 18.7869 68.9126 17.0123 68.9126 14.6038C68.9126 12.1816 67.0287 10.4221 64.7145 10.4234V10.4234ZM64.7145 17.1421C63.4481 17.1421 62.3538 16.097 62.3538 14.6065C62.3538 13.101 63.4467 12.071 64.7145 12.071C65.9809 12.071 67.0752 13.0997 67.0752 14.6065C67.0752 16.0956 65.9809 17.1421 64.7145 17.1421ZM75.9564 10.6775V11.3579H75.8935C75.4823 10.8647 74.69 10.4221 73.6927 10.4221C71.6012 10.4221 69.6817 12.2609 69.6817 14.6229C69.6817 16.9658 71.5998 18.7896 73.6927 18.7896C74.69 18.7896 75.4823 18.347 75.8935 17.8401H75.9564V18.4412C75.9564 20.041 75.1012 20.8975 73.7227 20.8975C72.5971 20.8975 71.9003 20.0888 71.6148 19.4098L70.0137 20.0751C70.4727 21.1831 71.694 22.5465 73.7214 22.5465C75.8744 22.5465 77.6968 21.2773 77.6968 18.1885V10.6762L75.9564 10.6775ZM73.8498 17.1421C72.5834 17.1421 71.5192 16.0792 71.5192 14.6229C71.5192 13.1502 72.582 12.0724 73.8498 12.0724C75.1012 12.0724 76.0834 13.1489 76.0834 14.6229C76.0848 16.0792 75.1025 17.1421 73.8498 17.1421ZM78.966 6.24035H80.8048V18.5355H78.966V6.24035ZM85.8444 17.1421C84.91 17.1421 84.2433 16.7131 83.8184 15.8757L89.4114 13.5601L89.2187 13.0847C88.8718 12.1516 87.8089 10.4234 85.6381 10.4234C83.4837 10.4234 81.6927 12.1188 81.6927 14.6065C81.6927 16.9494 83.4673 18.7882 85.8444 18.7882C87.7625 18.7882 88.8717 17.6175 89.3308 16.9344L87.9045 15.9849C87.4277 16.683 86.7775 17.1434 85.8444 17.1421V17.1421ZM85.701 12.0396C86.4291 12.0396 87.0466 12.4043 87.2529 12.9262L83.5124 14.4795C83.466 12.8633 84.7652 12.0396 85.701 12.0396V12.0396Z" fill="white"/>
<path id="path1235" fill-rule="evenodd" clip-rule="evenodd" d="M97.4802 6.24037H93.084V18.5355H94.9187V13.8784H97.4816C99.5157 13.8784 101.516 12.4057 101.516 10.0587C101.516 7.71579 99.5171 6.24174 97.4843 6.24174L97.4802 6.24037ZM97.528 12.1666H94.9187V7.95076H97.528C98.8996 7.95076 99.681 9.08875 99.681 10.0587C99.681 11.0123 98.8996 12.1666 97.528 12.1666V12.1666ZM104.361 18.5355V6.24037H102.527V18.5355H104.361ZM112.603 18.5137V13.8005C112.603 11.6175 110.972 10.4002 108.867 10.4002C107.54 10.4002 106.165 10.9863 105.595 12.2828L107.223 12.9617C107.572 12.2828 108.219 12.0601 108.901 12.0601C109.849 12.0601 110.814 12.6298 110.829 13.6434V13.7705C110.497 13.5806 109.786 13.2951 108.915 13.2951C107.159 13.2951 105.372 14.2595 105.372 16.0628C105.372 17.709 106.812 18.7678 108.426 18.7678C109.661 18.7678 110.34 18.2145 110.766 17.5669H110.829V18.5164H112.602L112.603 18.5137ZM108.648 17.1393C108.047 17.1393 107.208 16.8388 107.208 16.097C107.208 15.1475 108.253 14.7814 109.155 14.7814C109.963 14.7814 110.341 14.9549 110.833 15.1926C110.692 16.2964 109.759 17.1257 108.648 17.1393V17.1393ZM119.055 10.6694L116.952 15.9986H116.889L114.706 10.6694H112.729L116.002 18.1202L114.135 22.2637H116.049L121.094 10.6694H119.055Z" fill="white"/>
</g>
</g>
<defs>
<linearGradient id="paint0_linear_19_841" x1="11.9506" y1="1.58474" x2="-8.11179" y2="6.93037" gradientUnits="userSpaceOnUse">
<stop stop-color="#00A0FF"/>
<stop offset="0.007" stop-color="#00A1FF"/>
<stop offset="0.26" stop-color="#00BEFF"/>
<stop offset="0.512" stop-color="#00D2FF"/>
<stop offset="0.76" stop-color="#00DFFF"/>
<stop offset="1" stop-color="#00E3FF"/>
</linearGradient>
<linearGradient id="paint1_linear_19_841" x1="24.118" y1="13.0019" x2="-0.343811" y2="13.0019" gradientUnits="userSpaceOnUse">
<stop stop-color="#FFE000"/>
<stop offset="0.409" stop-color="#FFBD00"/>
<stop offset="0.775" stop-color="#FFA500"/>
<stop offset="1" stop-color="#FF9C00"/>
</linearGradient>
<linearGradient id="paint2_linear_19_841" x1="15.011" y1="15.3238" x2="-1.09518" y2="42.4314" gradientUnits="userSpaceOnUse">
<stop stop-color="#FF3A44"/>
<stop offset="1" stop-color="#C31162"/>
</linearGradient>
<linearGradient id="paint3_linear_19_841" x1="-2.71275" y1="-7.03676" x2="4.47268" y2="5.06996" gradientUnits="userSpaceOnUse">
<stop stop-color="#32A071"/>
<stop offset="0.069" stop-color="#2DA771"/>
<stop offset="0.476" stop-color="#15CF74"/>
<stop offset="0.801" stop-color="#06E775"/>
<stop offset="1" stop-color="#00F076"/>
</linearGradient>
</defs>
</svg>
