<svg width="25" height="25" viewBox="0 0 25 25" fill="none" xmlns="http://www.w3.org/2000/svg">
<path d="M17.8105 21.75H7.81055C4.16055 21.75 2.06055 19.65 2.06055 16V9C2.06055 5.35 4.16055 3.25 7.81055 3.25H17.8105C21.4605 3.25 23.5605 5.35 23.5605 9V16C23.5605 19.65 21.4605 21.75 17.8105 21.75ZM7.81055 4.75C4.95055 4.75 3.56055 6.14 3.56055 9V16C3.56055 18.86 4.95055 20.25 7.81055 20.25H17.8105C20.6705 20.25 22.0605 18.86 22.0605 16V9C22.0605 6.14 20.6705 4.75 17.8105 4.75H7.81055Z" fill="white"/>
<path d="M12.8103 13.37C11.9703 13.37 11.1203 13.11 10.4703 12.58L7.34032 10.08C7.02032 9.81997 6.96033 9.34997 7.22033 9.02997C7.48033 8.70997 7.95033 8.64997 8.27033 8.90997L11.4003 11.41C12.1603 12.02 13.4503 12.02 14.2103 11.41L17.3403 8.90997C17.6603 8.64997 18.1403 8.69997 18.3903 9.02997C18.6503 9.34997 18.6003 9.82997 18.2703 10.08L15.1403 12.58C14.5003 13.11 13.6503 13.37 12.8103 13.37Z" fill="white"/>
</svg>
