<svg width="17" height="17" viewBox="0 0 17 17" fill="none" xmlns="http://www.w3.org/2000/svg">
<path d="M8.38909 12.7367C10.7106 12.7367 12.5926 10.8547 12.5926 8.53313C12.5926 6.21158 10.7106 4.32959 8.38909 4.32959C6.06754 4.32959 4.18555 6.21158 4.18555 8.53313C4.18555 10.8547 6.06754 12.7367 8.38909 12.7367Z" stroke="#264653" stroke-width="1.16406" stroke-linecap="round" stroke-linejoin="round"/>
<path d="M13.0063 13.1506L12.9222 13.0665M12.9222 3.99979L13.0063 3.91572L12.9222 3.99979ZM3.77143 13.1506L3.8555 13.0665L3.77143 13.1506ZM8.38886 2.1179V2.06616V2.1179ZM8.38886 15.0001V14.9484V15.0001ZM1.97361 8.53315H1.92188H1.97361ZM14.8559 8.53315H14.8041H14.8559ZM3.8555 3.99979L3.77143 3.91572L3.8555 3.99979Z" stroke="#264653" stroke-width="1.55208" stroke-linecap="round" stroke-linejoin="round"/>
</svg>
