<svg width="21" height="21" viewBox="0 0 21 21" fill="none" xmlns="http://www.w3.org/2000/svg">
<path id="Vector" d="M19.0401 0.5H1.25236C0.95751 0.5 0.674736 0.617129 0.466245 0.82562C0.257754 1.03411 0.140625 1.31689 0.140625 1.61174V19.3995C0.140625 19.6944 0.257754 19.9771 0.466245 20.1856C0.674736 20.3941 0.95751 20.5112 1.25236 20.5112H10.83V12.7736H8.23073V9.74408H10.83V7.52061C10.83 4.93582 12.4086 3.52726 14.721 3.52726C15.4981 3.52503 16.2764 3.56506 17.0501 3.64621V6.33661H15.4548C14.2007 6.33661 13.9562 6.93473 13.9562 7.80966V9.73852H16.9545L16.5654 12.768H13.9551V20.5112H19.0401C19.335 20.5112 19.6178 20.3941 19.8262 20.1856C20.0347 19.9771 20.1519 19.6944 20.1519 19.3995V1.61174C20.1519 1.31689 20.0347 1.03411 19.8262 0.82562C19.6178 0.617129 19.335 0.5 19.0401 0.5V0.5Z" fill="white"/>
</svg>
